<?xml version="1.0" encoding="UTF-8" standalone="no"?>
<!DOCTYPE svg PUBLIC "-//W3C//DTD SVG 20010904//EN"
              "http://www.w3.org/TR/2001/REC-SVG-20010904/DTD/svg10.dtd">

<svg id="logo" xmlns="http://www.w3.org/2000/svg"
     width="1.22222in" height="1.22222in"
     viewBox="0 0 110 110">
  <g>
    <path id="bulb" class="logo-bulb et-light-mode-capable"
          fill="#5dff31" stroke="transparent" stroke-width="0"
          d="M 82.00,75.00
             C 82.00,75.00 82.00,89.88 82.00,89.88
               82.00,89.88 80.88,89.32 80.88,89.32
               80.88,89.32 63.16,75.00 63.16,75.00
               63.16,75.00 59.19,75.30 27.00,75.00
               27.00,75.00 16.00,75.00 16.00,64.00
               16.00,48.00 16.00,48.00 16.00,33.00
               16.00,31.37 16.00,22.00 27.00,22.00
               44.86,22.00 84.00,22.00 84.00,22.00
               96.00,22.00 96.00,33.00 96.00,33.00
               96.00,48.00 96.00,48.00 96.00,64.00
               96.00,75.00 84.00,75.00 84.00,75.00
               84.06,75.20 82.00,75.00 82.00,75.00 Z" />
    <path id="tool" class="logo-hammer et-light-mode-capable"
          fill="#212121" stroke="transparent" stroke-width="0"
          d="M 42.04,28.60
           C 49.26,28.94 51.76,33.13 51.65,40.15
             51.65,40.15 72.43,57.02 75.13,59.43
             81.37,64.98 75.67,73.18 68.63,67.35
             66.14,65.29 45.19,47.90 44.77,47.87
             37.68,47.77 34.84,47.21 32.47,41.84
             31.71,39.89 31.67,37.94 32.34,36.00
             33.52,36.79 37.44,39.41 39.35,40.80
             39.31,40.82 42.34,41.75 43.78,39.86
             45.27,37.90 43.83,35.49 43.63,35.35
             43.63,35.35 38.47,30.65 37.53,29.90
             38.73,28.94 40.77,28.76 42.04,28.60 Z" />
   </g>
</svg>
